<svg width="1923" height="2362" viewBox="0 0 1923 2362" fill="none" xmlns="http://www.w3.org/2000/svg">
<path d="M1605.75 1254.46C1609.07 1611.81 1919.23 1730.72 1922.67 1732.24C1920.04 1740.62 1873.1 1901.69 1759.26 2068.07C1660.85 2211.92 1558.7 2355.23 1397.79 2358.2C1239.69 2361.11 1188.85 2264.45 1008.09 2264.45C827.378 2264.45 770.892 2355.23 621.225 2361.11C465.91 2366.99 347.636 2205.57 248.409 2062.25C45.6277 1769.1 -109.335 1233.85 98.7413 872.559C202.107 693.135 386.84 579.525 587.338 576.611C739.852 573.705 883.811 679.218 977.045 679.218C1070.22 679.218 1245.16 552.33 1429.07 570.964C1506.05 574.17 1722.17 602.057 1860.94 805.183C1849.75 812.115 1603.07 955.722 1605.75 1254.47M1308.61 377.015C1391.08 277.202 1446.57 138.259 1431.43 0C1312.57 4.77662 1168.85 79.2047 1083.6 178.958C1007.19 267.303 940.282 408.694 958.337 544.211C1090.82 554.463 1226.15 476.888 1308.61 377.015Z" fill="white"/>
</svg>
