<svg width="2500" height="1387" viewBox="0 0 2500 1387" fill="none" xmlns="http://www.w3.org/2000/svg">
<path d="M0 1137.89C0 1168.92 11.2471 1192.37 33.7366 1208.27C56.2284 1224.17 80.2698 1229.79 105.863 1225.14C129.904 1220.49 146.773 1211.96 156.47 1199.55C166.163 1187.14 171.012 1166.59 171.012 1137.89V800.527C171.012 776.483 162.676 756.125 146 739.452C129.328 722.777 108.969 714.44 84.9255 714.44C61.6589 714.44 41.6892 722.777 25.014 739.452C8.33879 756.125 0 776.483 0 800.527V1137.89ZM267.566 1282.15C267.566 1304.64 275.516 1321.51 291.414 1332.75C307.315 1344 327.673 1349.62 352.489 1349.62C378.082 1349.62 398.827 1344 414.727 1332.75C430.625 1321.51 438.576 1304.64 438.576 1282.15V495.734C438.576 472.468 430.237 452.495 413.564 435.823C396.889 419.15 376.531 410.811 352.489 410.811C329.223 410.811 309.25 419.15 292.578 435.823C275.902 452.498 267.566 472.468 267.566 495.734V1282.15ZM533.969 1319.37C533.969 1341.86 542.112 1358.73 558.399 1369.98C574.685 1381.22 595.625 1386.85 621.221 1386.85C646.037 1386.85 666.395 1381.22 682.293 1369.98C698.194 1358.73 706.144 1341.86 706.144 1319.37V601.597C706.144 577.556 697.805 557.002 681.133 539.941C664.457 522.879 644.488 514.35 621.221 514.35C597.177 514.35 576.626 522.879 559.564 539.941C542.503 557.002 533.971 577.556 533.971 601.597L533.969 1319.37ZM801.535 1322.86C801.535 1365.52 830.23 1386.85 887.621 1386.85C945.011 1386.85 973.705 1365.52 973.705 1322.86V159.532C973.705 94.3851 953.929 57.5471 914.376 49.0152C888.782 42.8099 863.575 50.1785 838.759 71.1185C813.941 92.0584 801.532 121.528 801.532 159.532V1322.86H801.535ZM1073.76 1356.6V90.8951C1073.76 50.5671 1085.78 26.5257 1109.82 18.7686C1161.78 6.3605 1213.36 0.155273 1264.54 0.155273C1383.2 0.155273 1493.72 28.0752 1596.09 83.9151C1698.46 139.755 1781.25 215.953 1844.46 312.51C1907.67 409.068 1944.31 515.511 1954.4 631.846C2001.7 611.681 2052.11 601.6 2105.63 601.6C2214.2 601.6 2307.08 639.99 2384.24 716.769C2461.41 793.552 2500 885.841 2500 993.644C2500 1102.22 2461.41 1194.9 2384.24 1271.68C2307.08 1348.46 2214.59 1386.85 2106.79 1386.85L1094.69 1385.69C1087.71 1383.36 1082.47 1379.09 1078.98 1372.89C1075.49 1366.69 1073.76 1361.25 1073.76 1356.6Z" fill="white"/>
</svg>
