<svg width="95" height="95" viewBox="0 0 95 95" fill="none" xmlns="http://www.w3.org/2000/svg">
<path d="M47.0889 0C73.0948 0 94.1777 21.0824 94.1777 47.0889C94.1777 73.0954 73.0949 94.1777 47.0889 94.1777C21.0819 94.1777 0 73.0953 0 47.0889C7.21648e-05 21.0825 21.082 8.24636e-05 47.0889 0ZM53.915 25.0859L36.2783 10.9141L34.792 11.3486L48.3477 28.4922L21.4902 19.5186L20.251 20.8809L44.2598 34.6182L11.1543 37.4014L10.7842 39.4453L45.1875 43.2148L16.4756 67.1074L17.7139 68.7744L51.8711 50.0869L45.1289 83.0107H47.1729L60.2871 52.0078L68.2744 76.2627L69.6953 75.1465L66.4189 50.5215L78.8516 64.6934L79.6562 63.3887L70.1299 45.8174L83.4326 50.7686L83.5566 49.2822L71.6162 40.4316L82.874 37.7129L82.5693 36.2852L70.5654 34.1826L77.5527 24.7158L76.749 23.7881L66.4775 28.7393L67.7754 15.6182L66.7246 15.002L60.4756 25.6436L53.4805 9.80469H52.2471L53.915 25.0859Z" fill="white"/>
</svg>
