<svg width="798" height="559" viewBox="0 0 798 559" fill="none" xmlns="http://www.w3.org/2000/svg">
<path d="M398.656 0C398.915 4.48492e-06 648.055 0.00818928 710.173 16.6172C744.545 25.8765 771.563 52.8916 780.694 87.1396C797.312 149.29 797.313 279.049 797.313 279.049C797.312 279.318 797.295 408.868 780.694 470.954C771.435 505.327 744.421 532.344 710.173 541.476C648.055 558.085 398.915 558.094 398.656 558.094C398.656 558.094 149.418 558.093 87.1396 541.476C52.767 532.216 25.7487 505.202 16.6172 470.954C-0.000393387 408.803 0 279.045 0 279.045C8.98699e-06 278.854 0.0118901 149.245 16.6172 87.1396C25.8765 52.767 52.8949 25.7487 87.1396 16.6172C149.419 -0.000336713 398.656 0 398.656 0ZM319.003 398.656L526.13 279.045L319.003 159.438V398.656Z" fill="white"/>
</svg>
